<svg width="28" height="28" viewBox="0 0 28 28" fill="none" xmlns="http://www.w3.org/2000/svg">
<path d="M4.09695 14.0028C4.09731 11.7566 4.86108 9.57724 6.26296 7.82225C7.66484 6.06725 9.62157 4.84083 11.8121 4.34418C14.0027 3.84754 16.2971 4.11016 18.3187 5.08897C20.3404 6.06777 21.9694 7.70464 22.9384 9.73102C23.9075 11.7574 24.159 14.053 23.6518 16.2411C23.1446 18.4293 21.9087 20.3801 20.147 21.7735C18.3853 23.1669 16.2022 23.9201 13.9561 23.9096C11.71 23.8991 9.53407 23.1256 7.7854 21.7158L4.87962 24.6216C7.54699 26.912 10.9785 28.1149 14.4921 27.9913C18.0057 27.8678 21.3442 26.4267 23.8441 23.9546C26.3439 21.4825 27.8222 18.1603 27.985 14.6483C28.1478 11.1363 26.9832 7.69158 24.7228 4.9988C22.4623 2.30602 19.2714 0.562305 15.7843 0.114213C12.2972 -0.333879 8.76917 0.546456 5.90135 2.58026C3.03353 4.61406 1.03591 7.65242 0.305495 11.0915C-0.424916 14.5306 0.16536 18.1186 1.95901 21.1424L4.99084 18.1106C4.40169 16.8213 4.09682 15.4203 4.09695 14.0028Z" fill="#FFC000"/>
<path d="M14.0085 21.8637C18.3452 21.8637 21.8608 18.3482 21.8608 14.0115C21.8608 9.67477 18.3452 6.15918 14.0085 6.15918C9.67184 6.15918 6.15625 9.67477 6.15625 14.0115C6.15625 18.3482 9.67184 21.8637 14.0085 21.8637Z" fill="#101828"/>
<path d="M14.0082 13.8454C15.6134 13.8454 16.9148 12.5441 16.9148 10.9388C16.9148 9.33356 15.6134 8.03223 14.0082 8.03223C12.4029 8.03223 11.1016 9.33356 11.1016 10.9388C11.1016 12.5441 12.4029 13.8454 14.0082 13.8454Z" fill="white"/>
<path d="M14.0887 20.4945L19.9291 14.6541C19.9486 14.631 19.9592 14.6018 19.9592 14.5717C19.9592 14.5415 19.9486 14.5123 19.9291 14.4893C19.9083 14.4649 19.8787 14.4498 19.8467 14.4473H8.16512C8.14854 14.4472 8.13209 14.4503 8.11675 14.4566C8.10141 14.4629 8.08747 14.4722 8.07574 14.4839C8.06401 14.4957 8.05474 14.5096 8.04844 14.525C8.04214 14.5403 8.03896 14.5567 8.03907 14.5733C8.0389 14.5894 8.04262 14.6053 8.04994 14.6197C8.05726 14.634 8.06795 14.6464 8.08108 14.6557L13.9215 20.4961C13.9448 20.5162 13.9746 20.527 14.0054 20.5267C14.0362 20.5264 14.0658 20.515 14.0887 20.4945Z" fill="white"/>
</svg>
